<svg xmlns="http://www.w3.org/2000/svg" viewBox="0 0 98.42 123.33"><defs><style>.cls-1{fill:#fff;}</style></defs><title>Recurso 2</title><g id="Capa_2" data-name="Capa 2"><g id="Proporcion_aurea" data-name="Proporcion aurea"><path class="cls-1" d="M98,40.94a23.16,23.16,0,0,1-4.6-3c-.43-.35-.84-.72-1.25-1.12A23.18,23.18,0,0,1,88.6,32.6a22.89,22.89,0,0,1-3.33-8.74c-.31-.36-.63-.69-.95-1a13.64,13.64,0,0,0-6.93-3.55c.05.27.09.55.15.82.12.48.25,1,.39,1.43a19.75,19.75,0,0,0,7.49,10.2l.14.1,0,.17c0,.15,0,.3,0,.45a12.71,12.71,0,0,1,0,1.34,18.74,18.74,0,0,0,2.73,1.06l.12,0,.08.1a4.83,4.83,0,0,1,.9,2.93v.12l-.07.1c-.19.25-.38.51-.57.78a18.49,18.49,0,0,0-1.63,2.88c-.19.43-.37.86-.53,1.29s-.27.81-.39,1.22q.11.76.18,1.52a12.73,12.73,0,0,1,3.15,7.24,13.45,13.45,0,0,1,.06,1.38v.11l-.06.09a19.62,19.62,0,0,0-2.9,12.27c0,.06,0,.11,0,.16A13.62,13.62,0,0,0,91.24,64l.2-.21a23.2,23.2,0,0,1,2.68-14.44c.28-.5.58-1,.9-1.48a23.2,23.2,0,0,1,2.58-3.23c.25-.26.5-.51.76-.76A5,5,0,0,0,98,40.94Z"/><path class="cls-1" d="M15.58,70.46l-.14-.09,0-.17c0-.15,0-.3,0-.45a12.7,12.7,0,0,1,.21-3.31c-.32-.21-.64-.41-1-.59a18.57,18.57,0,0,0-4.16-1.69l-.12,0-.08-.1a4.82,4.82,0,0,1-1-2.91V61l.07-.1c.19-.26.37-.52.55-.79a18.49,18.49,0,0,0,1.56-2.92c.18-.43.35-.87.5-1.3a18.12,18.12,0,0,0,.61-2.35v0a13,13,0,0,1-1.92-6.14,13.67,13.67,0,0,1,0-1.41v-.11l.06-.09a20,20,0,0,0,3.18-7.63,20.2,20.2,0,0,0,.33-4.82c0-.5-.07-1-.13-1.46a20,20,0,0,0-.4-2.16,14,14,0,0,0-5.43,3.22l-.22.21A23.77,23.77,0,0,1,4.69,47.77c-.31.5-.64,1-1,1.48A23.71,23.71,0,0,1,.92,52.44c-.27.26-.54.5-.81.75a5.12,5.12,0,0,0,.28,3A23.77,23.77,0,0,1,5,59.42c.4.36.81.75,1.24,1.2a23.68,23.68,0,0,1,3.41,4.53,23.46,23.46,0,0,1,3,9.1c.3.38.61.74.93,1.07a14,14,0,0,0,9.38,4.28A19.78,19.78,0,0,0,15.58,70.46Z"/><path class="cls-1" d="M70.52,85.08l-.09.14-.17,0-.45.05q-.6.06-1.21.06A12.72,12.72,0,0,1,65.71,85a18.65,18.65,0,0,0-.79,2.43l0,.12-.1.08a4.83,4.83,0,0,1-2.89,1h-.12l-.1-.07-.8-.53a18.37,18.37,0,0,0-3-1.5c-.43-.17-.87-.33-1.31-.47l-.11,0h0l-.95.15a12.74,12.74,0,0,1-8.36,4c-.31,0-.62,0-.95,0h-.54l-.09-.06A19.63,19.63,0,0,0,33.35,87c-.48,0-1,.08-1.42.15l-.37.07A13.61,13.61,0,0,0,34.21,91l.21.21a23.21,23.21,0,0,1,14.38,3q.74.44,1.46.93a23.1,23.1,0,0,1,3.17,2.65c.25.25.5.51.74.78a5,5,0,0,0,2.91-.33,23.17,23.17,0,0,1,3.06-4.53c.36-.42.74-.83,1.14-1.23a23,23,0,0,1,13.16-6.55c.37-.3.7-.61,1-.92a13.62,13.62,0,0,0,3.8-7.4A19.78,19.78,0,0,0,70.52,85.08Z"/><path class="cls-1" d="M24.12,21.89a37.16,37.16,0,0,1,5.75-4.37,20.12,20.12,0,0,0,1.71-2.1l.1-.14.17,0,.46,0h0c.23-.34.45-.68.65-1A19.09,19.09,0,0,0,34.8,10l0-.12.1-.08a4.9,4.9,0,0,1,3-.92h.12l.1.07c.26.2.53.39.8.58a19,19,0,0,0,3,1.67c.44.19.88.37,1.33.54a18.53,18.53,0,0,0,1.93.57,37.27,37.27,0,0,1,5.37-.21,12.74,12.74,0,0,1,3.77-.78c.45,0,.92,0,1.38,0h.11l.09.06a19.52,19.52,0,0,0,7.43,3.11,19.34,19.34,0,0,0,4.7.33c.36,0,.71-.05,1.06-.09a13.63,13.63,0,0,0-3.47-6.6l-.21-.21A23.17,23.17,0,0,1,51.1,4.58q-.73-.45-1.44-1A23.13,23.13,0,0,1,46.55.9c-.25-.26-.49-.53-.73-.79A5,5,0,0,0,42.9.37a23.17,23.17,0,0,1-3.16,4.46c-.37.41-.75.8-1.17,1.2a23.13,23.13,0,0,1-4.42,3.32,22.86,22.86,0,0,1-8.88,2.93c-.37.29-.72.59-1,.9A13.64,13.64,0,0,0,20,23.42c.37-.1.74-.19,1.11-.3A19.8,19.8,0,0,0,24.12,21.89Z"/><path class="cls-1" d="M12.8,47.82q-.1-.84-.27-1.67t-.34-1.36c-.25.43-.49.86-.78,1.28,0,.42,0,.83,0,1.23a12.28,12.28,0,0,0,1,4.26c.11.25.23.49.35.73,0-.12,0-.25,0-.37A18.67,18.67,0,0,0,12.8,47.82Z"/><path class="cls-1" d="M86.09,68.13c0-.13,0-.25,0-.38s0-.25,0-.38,0-.24,0-.36a20.36,20.36,0,0,1,2.95-12.65c0-.41,0-.81-.05-1.2a12,12,0,0,0-2.29-6c-.13-.18-.28-.36-.42-.54s-.2-.27-.32-.39c0,.13,0,.26-.06.4a18.68,18.68,0,0,0,0,5.61c.07.43.14.86.24,1.28s.17.65.26,1c0,.16.08.32.13.48l0,.16-.08.14c-.07.11-.14.23-.22.34l-.05.07c-.16.23-.34.46-.52.68s-.31.37-.48.55a12,12,0,0,1-3.16,2.47,32.58,32.58,0,0,1-2.61,6.63l-.23.43a12,12,0,0,1-1.5,6.34c-.1.18-.18.37-.29.54a12.39,12.39,0,0,1-.75,1.07l-.07.08-.1,0c-.19.07-.38.17-.57.25A17.61,17.61,0,0,0,68,81c-.18.25-.36.49-.53.74s-.17.23-.25.35l-.18.31c-.17.28-.34.57-.49.86s-.36.71-.52,1.07a12,12,0,0,0,3.75.24l.24,0a20.53,20.53,0,0,1,9.4-7.79l.39-.16.35-.14h0c.47-.17.94-.32,1.42-.46a20.35,20.35,0,0,1,3.59-.67l.93-.07a4.35,4.35,0,0,0,1.38-2.12,20.5,20.5,0,0,1-1.36-4.62C86.11,68.37,86.1,68.25,86.09,68.13Z"/><path class="cls-1" d="M14.34,29.08l.09.36a20.75,20.75,0,0,1,.42,2.28c.06.5.11,1,.13,1.52a21,21,0,0,1,0,2.54c0,.54-.1,1.08-.18,1.62,0,.28-.08.57-.13.85a20.77,20.77,0,0,1-.89,3.16l.34-.31a12,12,0,0,1,5.86-3c.24-.56.49-1.12.76-1.66h0a12.33,12.33,0,0,1-1.16-7.78c0-.12,0-.23.06-.35.07-.35.18-.7.28-1.05s.13-.45.21-.67.22-.53.33-.79a12.27,12.27,0,0,1,1.07-2l.06-.08-.21.08c-.42.13-.86.25-1.29.36l-.23.06-.14,0-.37.07a20.93,20.93,0,0,1-3.2.43l-1,0a4.46,4.46,0,0,0-1.52,2.12c.22.59.41,1.19.58,1.79Z"/><path class="cls-1" d="M33.3,86.27a20.53,20.53,0,0,1,4.89.23,20.24,20.24,0,0,1,7.7,3c.41,0,.81,0,1.2,0a12,12,0,0,0,7.14-3.06c.15-.14.3-.28.45-.43s.22-.2.32-.31l-.36-.07a18.62,18.62,0,0,0-8,.22c-.32.08-.65.17-1,.27s-.6.18-.89.29h0l-.16.06-.15-.08-.07,0-.3-.18c-.17-.11-.33-.23-.49-.34s-.45-.31-.66-.48a12,12,0,0,1-2.78-3.2,32.6,32.6,0,0,1-5.7-2.47l-.66-.37c-.35-.21-.7-.42-1-.64a12,12,0,0,1-7.83-1.42c-.21-.12-.43-.25-.63-.38a12.16,12.16,0,0,1-1-.77L23.1,76l0-.1c-.1-.28-.22-.54-.33-.81s-.28-.71-.44-1.06a18.3,18.3,0,0,0-3.14-4.62c-.23-.25-.5-.47-.75-.71s-.59-.59-.91-.86-.49-.37-.74-.55l-.49-.37a12,12,0,0,0-.13,2.77c0,.08,0,.16,0,.24a20.52,20.52,0,0,1,7.62,9.67l.14.37c0,.09.07.18.11.27l0,.1c.15.45.29.91.41,1.37A20.46,20.46,0,0,1,25,85.32c0,.31,0,.62,0,.93a4.35,4.35,0,0,0,2.09,1.43,20.67,20.67,0,0,1,3.32-1l.37-.08.37-.07.59-.1C32.31,86.36,32.8,86.31,33.3,86.27Z"/><path class="cls-1" d="M64.76,15.45c-.48-.05-.95-.12-1.42-.21l-.16,0a20.2,20.2,0,0,1-5-1.67c-.33-.16-.66-.31-1-.49.12.11.23.22.35.34s.36.33.53.5a12.33,12.33,0,0,1,3,5.62c.88.31,1.75.67,2.6,1.05A12,12,0,0,1,71,20.15c.32.08.65.15,1,.26a13.32,13.32,0,0,1,2.91,1.47,12.58,12.58,0,0,1,1,.79l.08.07,0,.1c.12.38.28.74.42,1.1s.25.63.39.94c.23.5.48,1,.75,1.48a18.31,18.31,0,0,0,2.2,3.05l.19.19c.37.4.75.78,1.15,1.14s.56.48.85.71.74.61,1.14.89.75.5,1.13.72l.64.35c0-.31,0-.61,0-.92,0-.08,0-.16,0-.24a20.52,20.52,0,0,1-7.63-10.49c-.15-.48-.29-1-.41-1.48s-.14-.75-.21-1.12c0-.13-.05-.25-.07-.38s0-.26-.06-.39c-.08-.57-.14-1.15-.17-1.74,0-.31,0-.62,0-.93a4.36,4.36,0,0,0-2.06-1.48A20.45,20.45,0,0,1,70,15.36l-.37.06h-.06l-.31,0c-.39,0-.77.08-1.17.1A20.53,20.53,0,0,1,64.76,15.45Z"/><path class="cls-1" d="M55.05,12c-.23,0-.47,0-.7,0a10.85,10.85,0,0,0-2.71.47c-.29.08-.56.18-.84.28.61,0,1.21-.11,1.82-.2.44-.07.88-.15,1.32-.25S54.69,12.15,55.05,12Z"/><path class="cls-1" d="M40.9,82c.1.16.19.32.3.47a11.27,11.27,0,0,0,3.22,3l.15.09,0,0h0a19.41,19.41,0,0,1,6.46-1.11,19.22,19.22,0,0,1,4.43.52l.41.11.39.11.19.05.31.09.42.15.64.23.3.11a19.25,19.25,0,0,1,3.07,1.56l.73.48a4.08,4.08,0,0,0,2.22-.79,19.4,19.4,0,0,1,.75-2.3l.15-.36.14-.34c.17-.39.35-.77.54-1.14l0-.09c.09-.16.19-.32.28-.49s.22-.39.34-.59l.08-.14A19.23,19.23,0,0,1,76,73.9c.24-.31.45-.61.64-.92a11.27,11.27,0,0,0,1.68-5.19c0-.26,0-.51,0-.77s0-.49,0-.74a11.29,11.29,0,0,0-1.09-4.19,31.45,31.45,0,0,1-1.86,3.44A30.75,30.75,0,0,1,62.17,77.2l-.65.29a30.72,30.72,0,0,1-22.11,1,11.26,11.26,0,0,0,1.18,3C40.68,81.68,40.79,81.84,40.9,82Z"/><path class="cls-1" d="M48.43,13.53l-.63,0A19.66,19.66,0,0,1,45.12,13c-.32-.08-.64-.15-1-.25l-.83-.26L43,12.42c-.46-.17-.92-.36-1.37-.56a19.8,19.8,0,0,1-3.08-1.73l-.73-.53a4.19,4.19,0,0,0-2.32.71,19.83,19.83,0,0,1-1.86,4.26c-.13.22-.27.43-.41.64L33,15.6l-.12.19-.11.14,0,0-.46.63c-.2.27-.41.52-.63.78a19.75,19.75,0,0,1-1.9,2,19.51,19.51,0,0,1-5.49,3.45l-.86.34c-.18.07-.36.15-.55.21-.25.3-.49.61-.7.92-.1.14-.17.29-.26.43a11.64,11.64,0,0,0-.82,10.72A32.16,32.16,0,0,1,23.12,32a31.49,31.49,0,0,1,14-11.36l.68-.27c.73-.28,1.47-.53,2.21-.75.56-.17,1.12-.33,1.68-.46l.44-.11,1.19-.25.46-.08c.58-.1,1.15-.18,1.73-.25a31.37,31.37,0,0,1,15,1.88c0-.07,0-.13,0-.2s-.07-.29-.1-.44-.06-.28-.1-.41a11.57,11.57,0,0,0-3.64-5.68c-.2-.17-.42-.33-.64-.49l-.31-.24-.18-.12-.63.17c-.3.08-.6.17-.9.24a19.94,19.94,0,0,1-4.85.46Z"/><path class="cls-1" d="M10.54,60.51c-.16.24-.33.48-.5.72a4.08,4.08,0,0,0,.74,2.24A19.28,19.28,0,0,1,15,65.2c.26.14.51.31.77.47l.3.18,0,0,.1.06.24.17.24.16.65.47A19.25,19.25,0,0,1,19.7,68.9a19.1,19.1,0,0,1,4,6.66c.3.24.6.46.91.66A11.26,11.26,0,0,0,31.74,78l.57-.06.56-.07A11.3,11.3,0,0,0,35.52,77a31.42,31.42,0,0,1-3.4-1.93A30.74,30.74,0,0,1,20.75,61.64c-.1-.21-.19-.43-.28-.66a30.77,30.77,0,0,1-.94-20.78q.21-.68.45-1.35l-.4.1a11.26,11.26,0,0,0-5.78,3.5c-.16.19-.32.38-.48.57s-.34.45-.5.69v0l-.1.16.05.19c.1.3.18.61.26.92s.18.73.25,1.1a19.41,19.41,0,0,1,.1,7.24c0,.07,0,.15,0,.22l-.06.31c0,.17-.06.33-.1.5s0,.21-.07.32c-.07.29-.17.58-.26.87s-.1.37-.16.56c-.15.45-.33.91-.52,1.35A19.27,19.27,0,0,1,10.54,60.51Z"/><path class="cls-1" d="M85.26,45.2c0-.14.06-.28.1-.42s.08-.34.12-.51.17-.54.26-.81.12-.4.19-.6l.05-.13c.15-.4.31-.81.49-1.21a19.32,19.32,0,0,1,1.7-3c.17-.24.34-.48.51-.71A4.08,4.08,0,0,0,88,35.55a19.55,19.55,0,0,1-2.47-.95l-.36-.17-.36-.17q-.49-.25-1-.53c-.36-.21-.71-.44-1.06-.68L82.66,33l-.56-.41L81.38,32a19.25,19.25,0,0,1-2.18-2.08,19,19,0,0,1-3.43-5.56c-.12-.29-.24-.59-.35-.89,0-.1-.08-.19-.11-.29-.29-.25-.59-.48-.89-.68l0,0A11.5,11.5,0,0,0,64.72,21l-.51.18-.51.18-.13,0a31.46,31.46,0,0,1,3.35,2A30.74,30.74,0,0,1,78,37.16c.09.21.18.44.26.67a30.73,30.73,0,0,1,0,22.13,11.26,11.26,0,0,0,3-1l.44-.24.45-.26a11.27,11.27,0,0,0,3.22-3l.13-.17.12-.18c0-.16-.08-.32-.13-.49a19.41,19.41,0,0,1-.34-9C85.19,45.49,85.23,45.34,85.26,45.2Z"/><path class="cls-1" d="M52.84,57.36h13l-.28.55a18.35,18.35,0,1,1-2.39-20.23l6.16-6.16a27.27,27.27,0,0,0-20-8.92A26.9,26.9,0,1,0,76.11,49.92H51.56Z"/><path class="cls-1" d="M53.92,123.33H36.86l8.54-17.06ZM41.1,120.73h8.61l-4.31-8.63Z"/><path class="cls-1" d="M56.29,106.27h2.89v17.06H56.29Z"/><path class="cls-1" d="M78.54,123.33H61.48L70,106.27Zm-12.82-2.61h8.61L70,112.09Z"/><path class="cls-1" d="M36.81,114.88a8.43,8.43,0,1,1-2.08-5.59l-2.08,2.08a5.56,5.56,0,1,0,.65,6.05H29.37l-.44-2.54h7.88Z"/></g></g></svg>