<svg xmlns="http://www.w3.org/2000/svg" viewBox="0 0 300.63 132.7"><defs><style>.cls-1{fill:#fff;}</style></defs><title>Recurso 1</title><g id="Capa_2" data-name="Capa 2"><g id="Capa_1-2" data-name="Capa 1"><path class="cls-1" d="M42.93,65.6c-.3,1-.5,2.3-.8,3.3v-.8a8.8,8.8,0,0,0-.5,1.5,6.53,6.53,0,0,1-.5,2,2.54,2.54,0,0,1,.8-1,12.09,12.09,0,0,1-.5,1.8,2.77,2.77,0,0,0-.3,1.3,9,9,0,0,0,.8-2.8c.3-1,.5-2,.8-3.3.3-.3.3-.5.5-.5a1.69,1.69,0,0,1,.3-1c.3-.5.3-.8.5-1h0v-.3c.3-1,.3-1.8.5-2.5s.5-1.5.8-2.5a32.79,32.79,0,0,1-1.8,7.5,69.33,69.33,0,0,0-2,7.5h-.3c-.3.3-.3.5-.5,1.3a4.07,4.07,0,0,1-.5,1.8v.3h0c0,.3-.3.3-.5.3l-1.5,6a8.06,8.06,0,0,0,1.3-3,4.72,4.72,0,0,0,1-3c.3-1,.8-2.3,1-3.3s.5-2.3.8-3.3v.5c.5-1.5,1-3.3,1.5-5,.5-2,.8-3.7,1.3-5.2V63h0v1h0v.5a4,4,0,0,1-.3,1.5,3.45,3.45,0,0,0-.5,1.8.55.55,0,0,1-.3.5v1.8h-.3v-.3a2.88,2.88,0,0,0-.5,2,2.77,2.77,0,0,0-.3,1.3c0,.5-.3,1-.3,1.5-.3,0-.3,0,0-.3V74a10.47,10.47,0,0,1-.5,3c-.3,1-.5,2-.8,3.3v.3c0,.3,0,.3-.3.5v.5a2.1,2.1,0,0,0-.5,1.5,4.07,4.07,0,0,1-.5,1.8c0,.5,0,.8-.3,1s-.3.8-.5,1.3v-.3a22.12,22.12,0,0,1-.5,2.5l.8-2a3.92,3.92,0,0,0,.8-1,4.42,4.42,0,0,1,.5-1.5v.3a4.07,4.07,0,0,1-.5,1.8,3.45,3.45,0,0,0-.5,1.8l-.3,1a2.08,2.08,0,0,1-.3,1.3c-.3.5-.3.8-.5,1v-.8a.55.55,0,0,0-.5.3c-.3.3-.3.3-.5,0,0,.5-.3.8-.3,1s-.3.5-.3,1v-.5a5.51,5.51,0,0,0-1,2.5h0l-1,1.8v-.5l-.3.5c-.3.8-.5,1.8-.8,2.5a25,25,0,0,1-.8,2.5c-.3-.3-.3-.3-.3,0s0,.3-.3,0a3.18,3.18,0,0,1-.8,2,16,16,0,0,0-1,2.3.47.47,0,0,0,.5-.5c0-.3.3-.3.5-.3-.3.5-.3.8-.5.8a.47.47,0,0,0-.5.5c-.3,1-.3,1.8-.8,1.8,0,.1.1.2.2.3h0c.1,0,.2.1.3.2h0l1.5-3,1.5-3a3.08,3.08,0,0,1,.3-1.3h0v.3a2.19,2.19,0,0,0,.3-.5h0a2.58,2.58,0,0,1,.8-1.3c.8-2.5,1.5-4.7,2.5-7.2.8-2.5,1.8-5,2.5-7.7a7,7,0,0,1-.5,2.5c-.3.8-.5,1.8-.8,2.5v.3h0c0,.3,0,.5-.3.5-.3.3-.3.5-.5.5v.5h0v.5a4.42,4.42,0,0,0-.5,1.5c0,.5-.3,1-.5,1v.5c-.3.7-.5,1.3-.8,2s-.5,1.5-.8,2.5l-.3.5v.8c-.1,0-.2.1-.3.2h0l-.3.3v.5a3,3,0,0,0-.8,1.8,2.54,2.54,0,0,1,.8-1,1.69,1.69,0,0,1-.3,1c-.3.5-.5.5-.5.5a88.67,88.67,0,0,1-6.7,13,22.07,22.07,0,0,1-8.7,8.5v.3a4.27,4.27,0,0,1-3.5,0,11.54,11.54,0,0,0-3.3-1,12.83,12.83,0,0,1-4-2.5,14.29,14.29,0,0,1-3-3.5A13.74,13.74,0,0,1,3,118a7.71,7.71,0,0,1-1-2.5c-.5-2-1-3.7-1.5-5.7a33,33,0,0,1-.5-7v-9a67.4,67.4,0,0,1,.8-10c.8-7,1.8-14.2,3-22s2.5-14.7,3.7-21.7c.5-3.3,1.3-6.5,2-9.7a46.15,46.15,0,0,0,1.3-9.7,1.59,1.59,0,0,0-.3-1.3c0-.3-.3-.8-.3-1,0-.5.3-.8.5-1.3a1.05,1.05,0,0,0,0-1.3A1.56,1.56,0,0,0,12,15a4.58,4.58,0,0,1,.8-1.3.67.67,0,0,1,1,0c.3.3.5,0,.8-.5,0,.3.3.3.8.3a10.49,10.49,0,0,0,.8,2.3A6.55,6.55,0,0,0,18,17.3c.5,1,1,2.3,1.5,3.5a21.34,21.34,0,0,1,1,4.2,1.69,1.69,0,0,0-.3,1v1c-1.3,7.5-2.8,15.2-4.2,23s-3,15.7-4.2,24c-.5,3.7-1,7.2-1.5,10.7S9.53,91.4,9,94.9c0,1.5-.3,3.3-.3,5v5a23,23,0,0,0,.5,4.5,18.71,18.71,0,0,0,1.3,4l1.5,1.3,3-1.5a31.12,31.12,0,0,1,2.8-2.3l3.7-5.7a59.49,59.49,0,0,0,3.3-6,53,53,0,0,0,2.8-6.5,20.74,20.74,0,0,1,1-3.3,4.88,4.88,0,0,1,1.3-2.3v-.8c.3-.9.6-1.9,1-2.8s.8-2,1-3c.3,0,.3,0,.3-.3l.3-.3a23.3,23.3,0,0,1,1.3-5.2c.5-1.5,1-3.3,1.5-4.7a5.66,5.66,0,0,0,.3-1.8,2.11,2.11,0,0,1,.5-1.3c.3-1.3.3-2.3.5-3.5l.8-3.7v-.4c.5-2,1-3.7,1.3-5.2.5-1.5.8-3.3,1.3-5.2V46.6c0-.8.3-1.5.3-2v-.3a2.19,2.19,0,0,0,.3-.5V41.3a8.8,8.8,0,0,0,.5-1.5,5.66,5.66,0,0,0,.3-1.8h0c.5-3.3,1-5.7,1.3-8s.5-4.5.8-7.2V19.1a28.61,28.61,0,0,1,.3-3,9.08,9.08,0,0,1,.3-2.3,6.89,6.89,0,0,0-.3.8c-.3,0-.3,0,0-.3a.55.55,0,0,1,.3-.5V12.3c0-.1.1-.2.2-.3h0v-.3c-.3,0-.3-.3-.3-.5V9.4c0-.3-.3-.3-.5-.3V8.6c-.3-.3-.3-.3-.3-.5V7.3a3.08,3.08,0,0,1,.3-1.3c0-.3,0-.3-.3-.5a2.19,2.19,0,0,1-.3-.5c0-.5.3-.5.3-.3s.3.5.3.3V4.2c0-.3-.3-.5,0-1a2.54,2.54,0,0,0,.8,1c0-.3.3-.3.3-.5s.3-.3.3-.5c.3,0,.3,0,0,.3v.3c.3,0,.3,0,.5-.3V3.3c.3-.5.3-.5.3-.3s0,.3.3.3c.3-.3.3-.3,0-.3s-.3-.3,0-.5.5,0,.5.3,0,.5.3.5c.3.3.3.3.3,0s.3-.3.3,0a5.88,5.88,0,0,1,1.5,2.8,18,18,0,0,1,1,4,20.07,20.07,0,0,1,.5,4.2c0,1.5.3,2.8.3,4v1c-.3,0-.3,0,0-.3v-.7a2.19,2.19,0,0,1-.3-.5l-.3.3v-2a7.9,7.9,0,0,0-.3-1.3c0-.3-.3,0-.3.3v2.3c-.3.5-.3.8,0,1,0,.1.1.2.2.3h0V19a1.69,1.69,0,0,1-.3,1l.3-.3c0-.3.3-.5.3-.3a5.66,5.66,0,0,0-.3,1.8v2a4,4,0,0,0-.3,1.5v2.8a6.93,6.93,0,0,1-.3,2h0s.3.3,0,.3l-1.5,11.5.3-.3a3,3,0,0,1,0,2.3c-.3.8-.3,1.5-.5,2-.3,1.5-.3,3.5-.8,5.5a29.87,29.87,0,0,1-1,5.2c-.3,0-.3.3-.3.5v.8H45v-1l-.3.3v-.3h-.3l.3-.3v-.3A95.55,95.55,0,0,0,46.53,45h0l-.3,3.7c.3-1.3.3-2.3.5-3.3a12.65,12.65,0,0,0,.3-2.8l-.3,1.8h0v-1l-.3,2.8c-.3,0-.3,0-.3-.3s.3-.3.3-.5a1.14,1.14,0,0,0-.3.8,1.69,1.69,0,0,1-.3,1v-.5c-.3,1.3-.5,2.8-.8,4.2a17.73,17.73,0,0,1-.8,4,1.93,1.93,0,0,1-.3,1v1a25.22,25.22,0,0,0-1.3,3.3,12,12,0,0,0-.5,3.3l.3.3-.5.3C43.43,63.3,43.23,64.6,42.93,65.6Zm-15.5,51.7c-.3-.3,0-.3.3-.3Zm1.8-2.5a5.79,5.79,0,0,1,1.5-2.5Zm2.5-4.8c-.2.3-.3.7-.5,1a.62.62,0,0,1-.1-.7l.1-.1a.37.37,0,0,0,.5-.2Zm.7-.7c-.3-.3-.3-.3,0-.3.1,0,.2-.1.3-.2h0c0,.3,0,.3-.3.3Zm2.8-10.5a15.07,15.07,0,0,1-1.3,3.3,19.1,19.1,0,0,1-1.5,2.8v-.6c.3-.3.3,0,.3.3a19.1,19.1,0,0,1,1.5-2.8c.4-1,.7-2,1-3Zm-2,8.7c.3,0,.3.3,0,.5,0,.3-.3.3-.5.3a3.51,3.51,0,0,1,.5-.8Zm.7-6.2c-.3.3-.5.5-.5.8a.55.55,0,0,1-.3.5,12.09,12.09,0,0,0,.5-1.8,5,5,0,0,0,.5-1.3,1.14,1.14,0,0,1-.3.8C34.23,101,34.23,101.3,33.93,101.3Zm0,5.2a12.09,12.09,0,0,0,.5-1.8,14.17,14.17,0,0,1,.8-1.8c-.3.5-.5,1.3-.8,1.8a7.76,7.76,0,0,1-.5,1.8ZM36.23,96a4.42,4.42,0,0,1-.5,1.5,2.54,2.54,0,0,1-.8,1c0-.3,0-.3.3-.5s.3-.3,0-.8c0-.1.1-.2.2-.3h0c.1,0,.2-.1.3-.2h0a1.28,1.28,0,0,0,.5-.7Zm0,0v-.3c0-.1.1-.2.2-.3h0v.3c-.1.1-.2.2-.2.3Zm.5-.7a12.09,12.09,0,0,1,.5-1.8Zm.7-8.7a2.27,2.27,0,0,0,.5-1.8Zm.5,6v.3a.55.55,0,0,1-.3.5c-.1,0-.2-.1-.3-.2h0c.4-.4.4-.7.6-.6Zm3.5-12.3a3.45,3.45,0,0,0-.5,1.8,3.74,3.74,0,0,1-.5,1.8v-.3c0-.5,0-.8.3-1a1.05,1.05,0,0,0,0-1.3v.5A1.14,1.14,0,0,1,41,81C41.23,80.6,41.43,80.6,41.43,80.3Zm.8-.7a11.7,11.7,0,0,1-.5,2,15.54,15.54,0,0,0-.5,2.3l-.5.5Zm-.8.2Zm.5-1.2h0l-.2-.3v-.5a.55.55,0,0,1,.3-.5c.3,0,.3,0,0,.3v.3c.3,0,.3,0,.3-.3s0-.5.3-.5Zm-.2-8.3h0v-.8C41.93,70.1,41.93,70.3,41.73,70.3Zm1,7a2.77,2.77,0,0,0-.3,1.3c0,.5,0,.8-.3,1a2.7,2.7,0,0,1,.3-1.5A1.14,1.14,0,0,1,42.73,77.3Zm-.2-3c.3.3.3.5,0,1Zm1.2,1.3v1h-.3l-.3.5a.47.47,0,0,1-.5-.5c.3-1,.8-2.3,1-3.3s.5-2.3.8-3.5c.3.5,0,1,0,1.8a6.53,6.53,0,0,0-.5,2l-.5,2.3Zm0-2.5a2.69,2.69,0,0,0-.5,1.5c0,.8-.3,1-.5,1,0-.5.3-.8.3-1.5a2.29,2.29,0,0,1,.7-1Zm-.2-.5a1.05,1.05,0,0,1,0-1.3,1.69,1.69,0,0,0,.3-1c.3.3.3.5,0,1a1.52,1.52,0,0,0-.3,1.3Zm.5-2.5a.62.62,0,0,1-.1-.7l.1-.1.8-3.5v2.3a3.45,3.45,0,0,0,.5-1.8,1.66,1.66,0,0,1,.5-1.3,11.08,11.08,0,0,1-.5,2.5,15.54,15.54,0,0,0-.5,2.3l-.3-.3c0-.3,0-.5.3-.5v-.3c0,.5-.3,1.3-.3,1.8a4.07,4.07,0,0,1-.5,1.8c-.3-.2-.3-1,0-2.2Zm0,0Zm0-49.5V19.3c.2.3.2.6,0,1.3Zm.2,46.5c-.3,0-.3-.3,0-.3s.3-.3.3-.5a4,4,0,0,0,.3-1.5.62.62,0,0,1,.1.7l-.1.1a1.69,1.69,0,0,0-.3,1v-.3Zm0-51.2a.62.62,0,0,1-.1-.7l.1-.1ZM45,59.6a1.4,1.4,0,0,1,.3-1.5,3.45,3.45,0,0,0,.5-1.8h0a12.09,12.09,0,0,1-.5,1.8,2.06,2.06,0,0,0-.3,1.5Zm0,2.2-.3.3Zm.5,3.5c-.3.8-.5,1-.3.5,0-.3,0-.5-.3-.5V65h.5v.3ZM45,61.8Zm1.2,2.8c-.3.3-.3.3-.5.3s-.3,0-.3.3c0-.1-.1-.2-.2-.3h-.5c.3-.3.3-.5.3-1,0-.3,0-.5.5-.5v1a.55.55,0,0,0,.3.5v-1c0-.5,0-.8.3-.5l-.3,1.5h.5v-.3Zm-1-5.3a1.69,1.69,0,0,1,.3-1c-.1.5-.1.8-.3,1Zm.3,10.8h0v.5c-.3-.5-.1-.5,0-.5ZM46,56.3h-.3V56h0l.3.3Zm.2,4.8v.8c0,.3-.3.5-.3.8a.62.62,0,0,1-.1-.7l.1-.1a1.14,1.14,0,0,1,.3-.8ZM46,54.6v.3C46,54.8,45.73,54.8,46,54.6Zm0,1v.3c-.3,0-.1-.3,0-.3Zm.2.7c.3.5.3.8,0,1a2.18,2.18,0,0,0-.5.8Zm-.2-1Zm.2-1.5a10.21,10.21,0,0,1,.3-3c.3-1,.3-2,.5-3Zm0,2.3.3-.3-.3.5Zm.3,2.7v.5c-.3-.2-.3-.5,0-.5Zm3-16.2c-.3-.5,0-1.3,0-2a18.91,18.91,0,0,0,.5-2.3h0l-.5,3.5h0c0,.3.2.3,0,.8.3,0,.3.2.3.5l-.8,2v1c0,.3-.3.5-.3.8l.3-.3c0,.1-.1.2-.2.3h0l-.3.3-.3,4v-.3c-.3.3-.3.5-.3,1.3v1.5c-.3,0-.3-.3,0-.5-.3.3-.3.5-.5,1a.47.47,0,0,1-.5.5v1h0a3.57,3.57,0,0,1-.8,3h0v2a2.33,2.33,0,0,1,0-2l-.3-.3h0a41.53,41.53,0,0,0,1.5-7c.3-2.3.8-4.7,1.3-7.7h.3v-.4c0-.3,0-.3-.3-.3.8.3.8-.1.9-.4Zm-3,13.2v-.5a1.33,1.33,0,0,1,.3-.8h.3l-.3.5v.3c-.3-.2-.3,0-.3.5.2.1.2.3,0,0Zm.2,5.3v-.5c.1,0,.2.1.3.2h0c-.1.3-.1.3-.3.3Zm1.2-12.8v.5c0,.3,0,.5-.3.5v-.5C47.93,48.6,47.93,48.6,47.93,48.3Zm.3,8Zm.7-5.5v.5h-.5V51Zm.3-12.4h0v-.8a.47.47,0,0,1,.1.7c-.1,0-.1,0-.1.1Zm.2-2.3C49.43,36.4,49.23,36.4,49.43,36.1Zm.3-3a1.69,1.69,0,0,1,.3,1,4,4,0,0,1-.3,1.5Zm1.2-3.2h0l-.3.3V31l.3-.5a1.69,1.69,0,0,1-.3,1,1.36,1.36,0,0,0,0,1.5c-.3,0-.3-.3-.3-.5v-.3l.3-1v-6a12.65,12.65,0,0,0-.3,2.8v5h0v1.3A2.77,2.77,0,0,1,50,33V32l-.3.3v-.5c0-.5.3-.8.3-1.3.3,0,.3,0,0,.3v.5a2.77,2.77,0,0,0,.3-1.3c0-.5,0-1-.3-1,.3,0,.3-.3.3-.8V26.9a1.14,1.14,0,0,1,.3-.8v-.5h.3v-.5h0v-.8a2.33,2.33,0,0,1,0-2c0-.8.3-1.5.3-2.5v.5l.3-2V25a1.33,1.33,0,0,1,.3-.8,1.59,1.59,0,0,1-.3,1.3c0,.3-.3.8,0,1.3h0v1a4,4,0,0,0-.3,1.5v1c-.5-.2-.3-.2-.3-.4Zm-1.2,8.2Zm.7-5c0,.3,0,.3.3.3a15.68,15.68,0,0,0-.5,3.7c.3,0,.3,0,.3-.3.3.5,0,.8-.3.8h0v-.3a2.7,2.7,0,0,1,.3-1.5c0-.5.3-1.3.3-1.8a.68.68,0,0,1-.4-.8c-.1,0-.1-.1,0-.1-.3,0-.3-.3,0-.5Zm.3-10.7c-.3,0-.3.3-.3.5.1-.2.2-.3.3-.5Zm0-4.5c-.3,0-.3-.3,0-.3v-.3c0,.1.1.2.2.3h0l-.2.3Zm0,1.2h0v-.3C50.93,18.9,50.93,19.1,50.73,19.1Z"/><path class="cls-1" d="M70.93,61.3l-.3.5a.55.55,0,0,1,.3-.5,13.67,13.67,0,0,0-2.3,2.5,12.47,12.47,0,0,0-1.5,2.8c-.1,0-.2.1-.3.2h0c-.3.3-.3.3-.3.5,0-.3-.3,0-.3.3a1.23,1.23,0,0,1-.5,1l-.5,1v.3a7.5,7.5,0,0,0-1,2c-.3.7-.5,1.3-.8,2l-1.5,4v1.3a4,4,0,0,1-.3,1.5V82a6.93,6.93,0,0,1-.3,2c-.1,1.1-.3,2.2-.5,3.3,0,.8-.3,1.5-.3,2V94c-.3.3-.3.3-.3.5v1a1.69,1.69,0,0,0-.3,1c0,.5,0,.8-.3,1V98c-.3,0-.3,0-.5.3l-.3.3v-.3a1.23,1.23,0,0,1-1,.5c-.5.3-.8.3-1,0v.5c0,.3,0,.5-.3.5h0v-.5a.55.55,0,0,0-.3-.5c0-.3,0-.3-.3-.5v.8a1.14,1.14,0,0,0-.3-.8c-.3.5-.3.8,0,1s.3.3,0,.3h-.8a.47.47,0,0,1-.5-.5l-.5.5H53c-.3-.3-.3-.5-.5-.5l-.5-.5c-.1,0-.2.1-.3.2h0a1.14,1.14,0,0,1-.3.8c-.3-.5-.5-.8-.8-1.3a8.8,8.8,0,0,1-.5-1.5v-.5a28,28,0,0,1,.3-5,30.52,30.52,0,0,0,.5-5.2l.3-3c0-1.3.3-2.3.3-3a2.89,2.89,0,0,1,.3-1.8,5.66,5.66,0,0,1,.3-1.8c.1-1,.3-2,.5-3l.8-3.7v-1c.3-2.5.8-5.2,1.3-8a76,76,0,0,0,1-8.5v-.5c.3-.3.3-.8.3-1.5v-.5c0-1,.3-1.8.8-2a3.18,3.18,0,0,0,1.3-1.5,4,4,0,0,0,1.5-.3,4,4,0,0,1,1.5-.3c.3,0,.3,0,.5.3,0,.3.3.3.3,0a5.36,5.36,0,0,0,1.5,1.5,3.35,3.35,0,0,1,1.5,1.8,3.58,3.58,0,0,1,0,2.5,8.68,8.68,0,0,0-.5,2.8c-.3,1.3-.3,2.5-.5,3.7s-.3,2.5-.5,3.7l1.5-1.5a17.5,17.5,0,0,1,2.8-3.3,24.84,24.84,0,0,0,3-2.5,2.11,2.11,0,0,0,1.3-.5,2.77,2.77,0,0,1,1.3-.3,1.38,1.38,0,0,1,1.3,1h0c0,.3.3.3.8.5.5,0,.5.5.3,1.3v-.3c0-.3,0-.3-.3,0v.7c-.3,0-.3,0-.8-.3a1.69,1.69,0,0,1-.3,1v-.3c-.3,0-.3,0-.3-.3h-.5c-.3,0-.3.3,0,.5-.5-.2-.8-.5-.8-.8s-.3,0-.5,0a2.19,2.19,0,0,0,.5.3c.1,0,.2.1.3.2h0v.5c-.3.3-.8.5-1,1a3.92,3.92,0,0,1-1,.8v-.4l-.3,1V60l-.5.5-.5.5v-.3C71.13,61.1,70.93,61.1,70.93,61.3Zm-7,12.8a1.69,1.69,0,0,1-.3,1Z"/><path class="cls-1" d="M81.13,117c-.2,0-.2-.2,0,0-.3,0-.3.3-.3.5v.3h-.5c-.3,0-.3,0-.5-.3v.3a2.19,2.19,0,0,0-.3.5c-.3-.3-.5-.5-.5-.8a1.14,1.14,0,0,0-.8-.3v.5l-.5-.3a1.27,1.27,0,0,1-1.8,0l-.2-.2a4,4,0,0,1-.5-3h0v-.3l-.3-.5v-4.5c0-.5.3-1.8.5-3.7v-3.5a1.69,1.69,0,0,1,.3-1v-1c.3-3.5.8-6.5,1-9.5s.8-6.2.8-9.5c.6-4.1,1-8.1,1.3-12.2,0-.8.3-2.3.5-4.7s.8-5.2,1.3-8.7c.5-3.3,1-7,1.5-10.7s1.3-7.5,1.8-11,1.3-6.5,1.8-9.2,1-4.7,1.3-6l.3-1.8c.3-.5.3-.8.5-.8.3-.3.3-.5.5-1l.8-.8a5.67,5.67,0,0,1,1.3-.8c.3-.3.5,0,.5.3.3.3.5.5.8.3.3.5.3.5.5.5H93a2.37,2.37,0,0,1,1.3,1.3,4,4,0,0,0,1,1.5,8.11,8.11,0,0,0,1,1.8,3.66,3.66,0,0,1,.3,2.5c0,.3-.3.5-.5.8a1.49,1.49,0,0,0-.3,1L95,26.5a1.23,1.23,0,0,0-.5,1v1.3c0,.3-.3,1.5-.5,3.5s-.8,4.5-1.3,7.5-1,6.2-1.5,9.5c-.5,3.5-1,6.5-1.3,9.5-.5,3-.8,5.5-1,7.7s-.5,3.3-.5,3.7l1.3-2.8c.3,0,.5-.5.8-1a6.42,6.42,0,0,1,1-1.3c.3-.3.5-.8.8-1l2.5-4c.8-.5,1.3-1.3,2-1.8a17.11,17.11,0,0,1,2-1.8,13.09,13.09,0,0,1,3.7-1.5,4.06,4.06,0,0,1,3.5.8c.3-.3.3-.3.5,0,0,.3.3.3.5.3v.3c0,.1.1.2.2.3h0c1,.3,1.8,1.3,2.3,3.3a3.51,3.51,0,0,1-.5-.8c0-.3,0-.5-.3-.5,0,.5,0,1,.5,1.3a3.45,3.45,0,0,1,.5,1.8c.3,0,.3,0,.3.3s0,.5.3.5a1.69,1.69,0,0,1,.3,1v.8l.3-1.3a1.05,1.05,0,0,1,0,1.3c0,.5-.3.8-.3,1.3V66a50.45,50.45,0,0,1,0,5.5,36.57,36.57,0,0,0-.5,5.7v.5l-.5,1.8.5-.8a58,58,0,0,1-5,14.7v.5h-.3v-.6a13,13,0,0,1-1.3,3c-.5.8-1,1.8-1.8,3l-1.3,1.3a3.15,3.15,0,0,1-.8,1.5c-.3.3-.8.5-1.3,1s-1,.8-1.5,1.3a4.63,4.63,0,0,1-1.8,1.3l-1.3.5v-.3l-3,.5a5.66,5.66,0,0,0-1.8-.3,2.33,2.33,0,0,1-2,0c0-.3-.3-.3-.5-.3a1.14,1.14,0,0,0-.8.3l-.8.8-.5.5c-.3.3-.3,0-.3-.3a2.77,2.77,0,0,0-.3,1.3v1h0v1c0,.1-.1.2-.2.3h-.3v1l-.3.5a3.15,3.15,0,0,1-.8,1.5,2.58,2.58,0,0,1-.8,1.3c-.3,0-.3,0,0,.3v.3c0,.3-.3.3-.3,0,0-.1-.1-.2-.2-.3h0l.3,1.7C80.93,116.8,81.13,116.8,81.13,117Zm-6.2-4.5c-.3,0-.3-.3,0-.5,0-.3,0-.3-.3,0v.8h.5c0-.2-.1-.3-.2-.3Zm.7,2.5c0-.8,0-1.3-.5-1.3.3,0,.3.3.3.5a.78.78,0,0,0,.2.8Zm5.5-42.4a1.14,1.14,0,0,1,.3-.8c.3-.3.3-.5.3-1-.3-.5-.3-.8,0-1a.62.62,0,0,0,.1-.7l-.1-.1c-.3,0-.3.3-.5.5,0,.3-.3.5-.3.8v1.5c0,.5-.3,1,0,1.5a16.34,16.34,0,0,0-.8,3.7c-.3,1.5-.3,2.8-.5,4.2-.5,3.7-.8,7.2-1.3,10.7-.3,3.5-.8,7-1,10.5s-.5,6.2-.8,9c.3-.3.3-.3.3-.5,0-.5,0-.8.3-1a1.69,1.69,0,0,0,.3-1v-.5c.5-6.5,1.3-12.7,1.8-18.7s1.3-12,2.3-17.7v-.3c-.3,0-.3.3-.3.5.2.1-.1.4-.1.4Zm2.3,40.2.5-.8c0,.3,0,.3-.3.5-.1,0-.2.1-.2.3Zm1-6.5h0a2.77,2.77,0,0,0,.3-1.3l-.3.8Zm7.5-29.2c-.5,1-.9,2-1.3,3a31.8,31.8,0,0,0-1,3.3,2.34,2.34,0,0,0-.8,1.8,16.67,16.67,0,0,1-.8,2,1.05,1.05,0,0,0,0,1.3A7.71,7.71,0,0,1,87,91l-.8,2.3-.8,2.3a18.62,18.62,0,0,0-.5,3,4,4,0,0,0-.3,1.5v2.3c0,.5,0,.8.3.8a3.13,3.13,0,0,0,.5-1l.8.8.8.8c.3-.3.3-.3.5-.3s.5.3.8.3h2c.3-.3.3-.5.5-.5h.5l1.5-1a4.71,4.71,0,0,1,1.3-1.5,8,8,0,0,1,1.3-1.3c.3-.5.3-.8.5-.8a33.87,33.87,0,0,0,4-7.2,7.1,7.1,0,0,1,.8-1.8,5.83,5.83,0,0,0,.8-1.8l1.8-5.7a11.14,11.14,0,0,1,.8-3c.3-1,.5-2,.8-3.3v-.8a15.69,15.69,0,0,0,.5-3.7c0-1.5.3-2.8.3-4v-.5a5.44,5.44,0,0,0,0-1.8,1.14,1.14,0,0,1-.3-.8c-.3-.8-.5-1.3-.8-2a4,4,0,0,0-1-1.8.55.55,0,0,0-.5.3h0c0,.3,0,.3-.3,0-.3,0-.3,0-.3.3l-.3-.3a13,13,0,0,0-1,1.5c-.3.3-.8.8-.8,1,0-.3,0-.3.3-.3,0,0,.3-.3,0-.3a30.7,30.7,0,0,0-5.2,7.7c-1.5,3-2.8,6.2-4.2,9.5l.5-.5h0l1.5-3.7a35.19,35.19,0,0,1,1.5-3.3c-.5.8-.8,1.5-1.3,2.3-.3.8-.5,1.5-.8,2.5Zm4.2-9.8-.3.8a1.69,1.69,0,0,1-.3,1c0,.3-.3.5-.5.3v.5c-.3.3-.5.5-.5.8s-.3.5-.5,1a7.71,7.71,0,0,1,1-2.5C95.33,68.6,95.83,67.8,96.13,67.3Zm.7-1Zm.5,0c0-.3.3-.5.3-1s.3-.5.5-.8c0,.3-.3.5-.3.8C97.63,65.6,97.63,65.8,97.33,66.3Zm1.5-2.2s-.3,0-.5.5c0-.3,0-.3.3-.3,0-.2,0-.2.2-.2Zm5.3,15.5c0-.3.3-.5.3-.8a.62.62,0,0,0,.1-.7l-.1-.1-.3,1.6c-.3-.3-.3-.5,0-.5.3-.3.3-.3,0-.5-.3.5-.3.8-.5,1a1.05,1.05,0,0,0,0,1.3l.5-1.3c-.3.8-.3,1.3-.5,1.5a3,3,0,0,0-.5,1l.3-.3a2.35,2.35,0,0,0,.5-1.3,2.39,2.39,0,0,0,.2-.9Zm0,17Zm2.2-5.5v.8c-.3.3-.3.5-.3,1a1.69,1.69,0,0,1,.3-1Zm3.3-9.5c.3.5.3.8,0,1,0,.3-.3.5-.3.8v-.8c.3-.3.3-.5.3-1Zm1.2-19a3.45,3.45,0,0,1-.5-1.8c0,.5.3.8.3,1a.78.78,0,0,0,.2.8Zm-.5,12c.3,0,.3.3.3.5s0,.3-.3.3v-.5c.3-.1.3-.1,0-.3Zm1-6.8v.8c0,.5,0,.5-.3.5Z"/><path class="cls-1" d="M156.73,66.6c.3,0,.3,0,.5-.3v-.5a1.33,1.33,0,0,1,.3-.8c0,.3-.3.5-.3.8v.5a2.77,2.77,0,0,0,.3-1.3h.3c.3-1,.8-2,1-2.8a19.65,19.65,0,0,1,1.3-2.5c0,.8-.3,1.3-.5,1.3-.3.3-.3.5,0,1l.8-1.3-.8,2h-.3a16.68,16.68,0,0,1-.8,2,4,4,0,0,1-1,1.8v.3l.3.3-1.3,3.7c.3,0,.3-.3.3-.5a.47.47,0,0,1,.5-.5v-1c.3,0,.3.3,0,.3v.3a2.34,2.34,0,0,0,.8-1.8,2.5,2.5,0,0,1,.8-1.8v.5c0,.3-.3.3,0,.5a10.5,10.5,0,0,1-.8,2.3,18.28,18.28,0,0,0-.8,2.5c-.1,0-.2.1-.3.2h0c0,.1-.1.2-.2.3h0c-.3.5-.5,1.3-1.3,2.8a50.55,50.55,0,0,1-2.5,4.5c-1,1.8-1.8,3.3-2.5,4.5a14.25,14.25,0,0,0-1.3,2.8v.5c-.1,0-.2.1-.3.2h0v.3l.3-.5-.8,1-.3.3v-.3c-.3.3-.3.5,0,.5-.3,0-.3,0-.5.3s0,.5,0,.8h-.3v.3c-.2,0-.5.3-.8.8l-.3.8c-.3.3-.3.5-.8,1a6.42,6.42,0,0,1-1,1.3,3.51,3.51,0,0,0-.5.8,2.18,2.18,0,0,0-.5.8c.8-.8,1.5-1.8,2.5-3l-1.5,2.3a4.94,4.94,0,0,1-2,1.8V97h0c0,.3-.3.3-.5.3h-.3l-.3.3c-.1,0-.2.1-.3.2h0c.3-.5,0-.8-.5-.5h0v.3a4,4,0,0,1-1.5.3,7.9,7.9,0,0,1-1.3-.3v.3c-.3,0-.3,0-.3-.3l-.3-.3a2.54,2.54,0,0,0-.8-1c-.3-.3-.8-.3-1-.5a5.89,5.89,0,0,1-.5-1.3c-.2-.5-.3-1.3-.5-1.8a31.5,31.5,0,0,1-1-7.5,65.24,65.24,0,0,0-.3-7.7c-.8,1.5-1.3,2.8-2,4-.5,1.3-1.3,2.5-2,4v.3c-.8,1-1.3,2.3-2,3.3a12.09,12.09,0,0,1-2,3v.5a6.39,6.39,0,0,1-1.5,1.3,16.18,16.18,0,0,1-1.8,1,4.42,4.42,0,0,1-1.5.5c-.5,0-1,.3-1.8.3h-1.5c-.5,0-.8-.3-1.3-.3a1.9,1.9,0,0,0-1.3-.5,5,5,0,0,0-1.3-.5,4,4,0,0,1-1-1.8,18.63,18.63,0,0,1-.5-3,18.19,18.19,0,0,1,0-3.3,7.69,7.69,0,0,1,.3-3,75.15,75.15,0,0,1,1.5-9.5,79.56,79.56,0,0,1,2.5-8.7c.5-1.5,1-2.8,1.5-4s1-2.5,1.5-4a3.45,3.45,0,0,0,.5-1.8c0-.8.5-1,.8-1.5a34.86,34.86,0,0,1,5.5-7.7,4.94,4.94,0,0,1,2-1.8,8.68,8.68,0,0,1,2.8-.5h2.3c.3,0,.3,0,.5.3,0,.3.3.3.5.3,0,.1.1.2.2.3h.5a3.51,3.51,0,0,0,.8.5c.2,0,.5.3.8.8.3,0,.5.3.5.8,0,.3.3.5.8.5a22,22,0,0,1,2.3,2,12.21,12.21,0,0,0,2.5,2v1c0,.3,0,.3-.3.5a.47.47,0,0,0-.5.5h-.8a1.14,1.14,0,0,0-.8.3c-.1,0-.2-.1-.3-.2h0a2.18,2.18,0,0,0-.5-.3h-.5c-.3-.3-.8-.3-1.3-.5-.5,0-.8-.3-1.3-.5-.3-.3-.8-.5-1-.8a5.67,5.67,0,0,0-1.3-.8c-.3-.3-.8-.3-1.3-.5s-.8,0-1.3,0c-.3,0-.3,0-.5.3s-.5.3-.5.5a41.34,41.34,0,0,0-5.2,10v.5l-1.5,4v.8a1.69,1.69,0,0,1-.3,1v.8c-.3.6-.5,1.1-.8,1.8a9.46,9.46,0,0,0-.5,1.8,4.42,4.42,0,0,0-.5,1.5c0,.5-.3.8-.3,1.3-.5,2-.8,4-1.3,6.2a47.06,47.06,0,0,0-.3,7.5,20.65,20.65,0,0,0,2.5-4c.8-1.3,1.5-2.8,2.3-4a8.53,8.53,0,0,1,1.3-2.5,7.71,7.71,0,0,0,1-2.5c.8-1.3,1.5-2.5,2.3-4a42.46,42.46,0,0,0,1.8-4h0a20.49,20.49,0,0,1,2.3-4.7,17.65,17.65,0,0,0,1.8-4.5c.3,0,.3,0,.3.3h.3V56.3c.3,0,.5-.3.8-.5.3-.5.5-.5.8-.3.3-.3.3-.3,0-.5s-.3-.3-.3-.5h.5c0-.3.3-.3.5-.3s.2-.1.3-.2h0v-.3c.3,0,.3.3.5.3h.5c.3-.5.5-.5.8-.3s.5.5.8.5v-.3c0-.1.1-.2.2-.3h0c.3,0,.3,0,0,.3v.3c.3,0,.3-.3.3-.5v-.4c.3.3.3.5.3,1,0,.3,0,.5.5.8v-.5c.3,0,.3.3.3.8s0,.8.3,1a2.1,2.1,0,0,1,.5,1.5,6.45,6.45,0,0,1-.3,2,6.45,6.45,0,0,0-.3,2,7.69,7.69,0,0,1-.3,3.7l-.8,3.7a15.77,15.77,0,0,0-.5,2.5c0,.8-.3,1.8-.3,2.8a54.82,54.82,0,0,0-.5,5.7q0,3,.3,6a3,3,0,0,0,0,2.3c0,.8.3,1.5.3,2.3a2.21,2.21,0,0,0,1-1.3,2.21,2.21,0,0,1,1-1.3l1.5-2.3a15.09,15.09,0,0,0,1.5-2.8,8.58,8.58,0,0,0,1.3-2.3c.5-1.3,1.3-2.5,2-4a30.05,30.05,0,0,1,2.3-4,17.39,17.39,0,0,0,1.5-2.5c0-.3.3-.5.3-1,0-.3.3-.5.5-.3a2.75,2.75,0,0,0,.8-1.5,14.17,14.17,0,0,1,.8-1.8c.3-.5.3-.8.5-1a1.91,1.91,0,0,0,.5-1v-.5c0-.3,0-.3.3-.8.1,0,.2-.1.3-.2h0c0-.3.3-.3.5-.3.3.3,0,.5,0,.8a3.51,3.51,0,0,0-.5.8c.3.3.3.5,0,.5v.5h0A2.16,2.16,0,0,1,156.73,66.6Zm-22.2,9.5c-.3.5-.8,1-.8,1.5-.3.7-.5,1.3-.8,2Zm-.8-.3c.3-.3.5-.5.3-1Zm14,15.3Zm8.8-19.3c.3-.3.3-.5,0-.5C156.73,71.3,156.53,71.6,156.53,71.8Zm1-7.2c0,.3,0,.5-.3.5Z"/><path class="cls-1" d="M183,97.3h-.5l-.5.5c-.3.3-.3.5-.5.5s-.2-.1-.3-.2h0c-.3,0-.3,0-.3.3s-.3.3-.5.3a.55.55,0,0,1-.3.5c-.1,0-.2-.1-.3-.2h0c-.3,0-.3.3-.5.5a1.33,1.33,0,0,0-.3,1h0l.5.3a2.75,2.75,0,0,1-1.5.8,3.25,3.25,0,0,0-1.8,1,1.91,1.91,0,0,0-1,.5,1.69,1.69,0,0,1-1,.3.88.88,0,0,1,1-.5,1.14,1.14,0,0,0,.8-.3,1.53,1.53,0,0,0-1.8.3,1.84,1.84,0,0,1-2,.3l.3-.3h.3c.3-.5.3-.5,0-.3,0,.3-.3,0,0-.3a1.91,1.91,0,0,1-1-.5c-.3-.3-.5-.3-1,0v-.5h0a7.55,7.55,0,0,0-1.3-2.3,4.38,4.38,0,0,1-.8-2.5,26,26,0,0,1-.5-6.2,18.28,18.28,0,0,1,.8-5.7,29.28,29.28,0,0,1,1.5-6c.5-2,1-4.2,1.5-7a44,44,0,0,0,1.5-8.7c0-2-.5-2.8-1.8-2.3-.3,0-.3.3-.8.8-.3.3-.5.8-.8,1l-.3.3c-.3.3-.3.5-.5.5h-.5a3.51,3.51,0,0,0-.5.8c-.2.3-.3.5-.5.5a19.18,19.18,0,0,1-2.3,3.5c-.8,1-1.5,2.3-2.5,3.5-.1,0-.2.1-.3.2h0c0,.3-.3.3-.3,0-.3,0-.3.3-.5.8-.3.3-.3.8-.5,1V72.3c-.3,0-.3.3-.3.5h0c0,.5-.3,1.8-.5,3.7s-.8,4-1,6a36.26,36.26,0,0,1-1.3,5.7c-.5,1.8-.8,2.5-1.3,2.5,0,.5,0,.8-.3,1h-.3a1.69,1.69,0,0,0-.3,1v.8l-.8-.5h0c0-.3,0-.3-.3-.3v1.8h-.3c0-.1-.1-.2-.2-.3h0l-.5,1.3c-.3.3-.3,0-.3-.5-.3.3-.3.3-.5.3s-.5.3-.8.3c-.3-.5-.5-.5-1-.8-.3,0-.8.3-1.3,1v-.3c0-.1-.1-.2-.2-.3h0v.5h-.8V92.4a15,15,0,0,1,.5-3.7h-.3c-.3,0-.3,0-.3-.3.3,0,.5,0,.5-.3l1-7.2v-1l.5-3a7,7,0,0,0,.5-2.5,10.47,10.47,0,0,1,.5-3l.8-7,1-5.2V57.7l.3-.3q.3-1.5,0-1.5c-.3,0,0-.8,0-1.8a5,5,0,0,0,.5-1.3,6.94,6.94,0,0,1,.5-1.3,5.51,5.51,0,0,1,1-2.5,4.64,4.64,0,0,1,1-1,5.89,5.89,0,0,1,1.3-.5,9.13,9.13,0,0,0,1.3-.8c.3,0,.5,0,.5.3a1.33,1.33,0,0,0,.8-.3,1.14,1.14,0,0,0,.8.3h.5a15.27,15.27,0,0,1,1.8,1.8,2.08,2.08,0,0,1,.5,2l-.3,3.7-.3,1.8-.8,7.5,1.3-2.5a6.57,6.57,0,0,1,1.8-2.3,14.37,14.37,0,0,0,1.8-2.5l1.3-.8c.3-.3.8-.5,1-1,1.3-1.3,2.5-2.3,3.5-3.3a6.87,6.87,0,0,1,3.5-2h.5a.55.55,0,0,0,.5-.3.67.67,0,0,0,1,0c.3-.3.8,0,.8.5a.62.62,0,0,1,.7-.1l.1.1c.3.3.8.3.8.5v.5a.47.47,0,0,0,.5.5v.5h0c0,.8,0,1.3.3,1.5l.5.5v2.5c0,.5,0,.8.3,1a1.69,1.69,0,0,1-.3,1,1.05,1.05,0,0,1,0,1.3c0,.8-.3,1.3-.3,1.8-.3,1.3-.5,2.8-.8,4s-.6,2.5-1,3.7c-.5,2.5-1,4.2-1.3,5.7-.5,1.5-.8,2.8-1.3,4-.3,1.3-.8,2.5-1,3.7s-.8,3.3-1,5.5a18.48,18.48,0,0,0,0,4.7,3.05,3.05,0,0,0,1,1.3,2.08,2.08,0,0,0,1.3-.3,4,4,0,0,0,1.5-1,7.58,7.58,0,0,1,1.3-1,2.18,2.18,0,0,1,.5-.3l.3-.5h.3a8,8,0,0,1,1.3-1.3c.5-.5.8-1,1.3-1.5.3,0,.3,0,.3-.3h0c.2-.5.5-.8.8-.8a3.92,3.92,0,0,1,.8-1l2.3-2.8a14.8,14.8,0,0,0,.8-1.3l.5-.5.5-.5a7.68,7.68,0,0,0,1-1.8c.3-.5.5-.8.8-1.3a4.42,4.42,0,0,0,.5-1.5h.3c.3-.5.3-1,.5-1.3a1.91,1.91,0,0,0,.5-1h0a3.51,3.51,0,0,1,.5-.8,8.74,8.74,0,0,0,.8-1h0l.8-2.3a2.36,2.36,0,0,1-.3,2,5.66,5.66,0,0,0-.3,1.8,4.35,4.35,0,0,0,.8-1.5,16.18,16.18,0,0,1,1-1.8l-.5.8c.3.3.3.3.3-.3v1l.3.3a12.37,12.37,0,0,1-1.5,3.3,22.88,22.88,0,0,0-1,2.3,5.33,5.33,0,0,1-1.3,2c-.5.5-1,1.8-1.8,2.8a3.92,3.92,0,0,0-.8,1,2.54,2.54,0,0,1-.8,1h0v.3a4.35,4.35,0,0,0-.8,1.5c0,.3-.3.5-.3.8s-.3.3-.3.5-.5.5-.8,1V89c0,.3-.3.5-.5.8h0v.5c0-.5,0-.5-.3-.3a1.14,1.14,0,0,0-.3.8c-.5-.5-.8,0-.8,1.3v-.8c-.3,0-.3.3-.5.5a1.91,1.91,0,0,1-.5,1v.3c0,.1-.1.2-.2.3h0c-.3,0-.3,0-.3.3-.3,0-.3,0-.3.3v-.8a2.18,2.18,0,0,0-.3.5.47.47,0,0,0-.5.5,3.51,3.51,0,0,0-.5.8v.3h-.3c-.3.3-.5.3-.5.5l-.8.8c.1,0,.2-.1.3-.2h0l-.3.3h0c-.1,0-.2.1-.3.2h0c0,.3-.3,0-.3-.3v.3H183v.4Zm-28.3-39.5h0c-.1.4-.2.8-.3,1.3a1.33,1.33,0,0,1-.3.8Zm19.2,43.7c0-.3-.3-.3-.5-.3-.1-.2-.4-.2-.6-.1s-.2.4-.1.6.4.2.6.1l.1-.1c.3.3.6.3.5-.2Zm10-5Zm15-25.7a1.14,1.14,0,0,1-.3.8Z"/><path class="cls-1" d="M225.23,132.2c0-.5-.3-.8-.8-.5-.5,0-1,0-1.3-.5a6.42,6.42,0,0,1-1-1.3,5.24,5.24,0,0,1-1-1.8c-.3-1-.5-2.5-.8-4.2s-.5-3.5-.8-4.7c0-2.3-.3-4.7-.3-7.5-.3-2.8-.3-5.2-.5-7.5l-.5-21.5q-3,0-6,.3a40.47,40.47,0,0,0-6,.5c-1,3.7-2,7.7-2.8,11.5-.8,4-1.8,7.7-2.8,11.5a36.26,36.26,0,0,1,1.3-5.7c.5-1.8.8-3.7,1.3-5.7.5-1.8,1-3.7,1.5-5.5a41.73,41.73,0,0,0,1-6c-.3.3-.3.5-.3,1s0,.8-.3,1c-1,4.5-2,9-3.3,13.5-1,4.5-2.5,9-3.7,13.5l-.3.3-.3.3a30.23,30.23,0,0,1-2.3,7.2c-.3,0-.3-.5,0-1v-1a18.63,18.63,0,0,0,.5-3c.2-1.2.3-2.3.5-3.3-.3,0-.3.5-.3,1.3a30.43,30.43,0,0,1-1.3,5.2c-.5,2-1,4-1.3,5.7v-1a2.77,2.77,0,0,0-.3,1.3c0,.5-.3.8-.3,1a.62.62,0,0,1-.1-.7l.1-.1c0-.3.3-.5.3-.8h-.3s-.3,0-.3-.5l-.5,1c-.3,0-.3.3-.5.3l-.3.3c-.1.4-.2.8-.3,1.3v.5a3.81,3.81,0,0,1-.3-1,3.45,3.45,0,0,0-1.3.3,1.69,1.69,0,0,1-.3-1,1.69,1.69,0,0,0-.3-1c.3-.5.3-.8,0-1a2.08,2.08,0,0,1,.3-1.3c.3-.5,0-.8-.3-1,1-6,2.2-12,3.7-18s2.8-12,4-18l-2.7.6-3.5,1c-.5.3-1,.3-1.3.5a7.9,7.9,0,0,0-1.3.3c0-.5-.3-.8-.5-.8a1.69,1.69,0,0,0-1-.3v-.9a1.14,1.14,0,0,0-.8-.3c-.3,0-.5-.3-.5-.8.3-.3.3-.3.5-.3s.3,0,.5-.3c0-.3,0-.3-.3-.3s-.3-.3-.3-.5c.3-.3.5-.5.3-1a6.42,6.42,0,0,1,1.3-1,2.41,2.41,0,0,0,1-1c0-.3,0-.3-.3,0s-.5.3-.5,0a24.08,24.08,0,0,0,3.3-1.5,22.88,22.88,0,0,1,2.3-1c.8-.2,1.5-.5,2.5-.8,1.2-.3,2.5-.6,3.7-.8,1.5-6.2,3-12.5,4.2-18.7,1.5-6,3-12,4.5-17.7s3.5-11.2,5.2-16.7a124.94,124.94,0,0,1,6.7-15.5,2.1,2.1,0,0,0,1-1.8,3,3,0,0,1,1-2,1.23,1.23,0,0,1,.5-1c.3-.3.5-.5.5-.8.3,0,.5,0,.5.3a1.59,1.59,0,0,1,1-.8,6.94,6.94,0,0,1,1.3-.5c.5.3.5.3.5,0s0,0,.5.3c.3,0,.3,0,.3-.3s.3-.3.3-.5a1.76,1.76,0,0,0,1.5.8,4.42,4.42,0,0,1,1.5.5l.5,2c.3,0,.3,0,.3-.3s0-.3.3-.3a3.51,3.51,0,0,1,.5.8c.2.3.3.3.5.3a1.69,1.69,0,0,1,.3,1,1.14,1.14,0,0,0,.3.8,3.51,3.51,0,0,0,.5-.8c0-.3,0-.5.3-.5a2.75,2.75,0,0,1,.8,1.5,4.55,4.55,0,0,1,.5,2h.3c0-.3.3,0,.5,0-.3,3.3-.3,6.2-.5,8.7a51.19,51.19,0,0,1-.8,8.7l-1.5,10.5c-.3,3.5-.8,7-1.3,10.5-.3,4.7-.8,9.7-.8,14.5-.3,4.7-.3,9.7-.3,14.5a1.14,1.14,0,0,0,.8.3c.3,0,.5.3.5.8.8-.3,1.5-.3,1.8.3a2.78,2.78,0,0,1,.3,1.8,4.88,4.88,0,0,1-1.3,2.3,8.36,8.36,0,0,1-2.3,1.8,75.28,75.28,0,0,1,0,9.5v13.5a15,15,0,0,0,.3,3.7,28.21,28.21,0,0,0,.8,6.5c.3,2.3.5,4.5.8,6.5.3.5.3.8.5,1l.3,1.8v2.3c0,1-.3,1.8-.8,1.8-.5.3-1,.5-1,.8a1.91,1.91,0,0,1-.5,1,2.87,2.87,0,0,0-.8,1.3c0,.3-.3.5-1,.5a2.41,2.41,0,0,0-1-1C225.93,131,225.43,131.2,225.23,132.2Zm-29-15L198,109l-1.5,4.5c-.3,1.8-.8,3.3-1,4.5Zm26.2-90.1c0,.3-.3.3,0,0h0l-.5.3v-.5a129.92,129.92,0,0,0-8.2,23.4c-2.3,8.2-4.2,16.5-6.2,25,.8,0,1.8-.3,2.8-.3s2-.3,3.3-.3h3.2a9.19,9.19,0,0,1,2.8.5V64c0-4,.3-8.2.5-12.2.3-4.2.8-8.2,1-12.5a101.59,101.59,0,0,1,1.3-12.2Z"/><path class="cls-1" d="M258.43,61.3l-.3.5a.55.55,0,0,1,.3-.5,13.66,13.66,0,0,0-2.3,2.5,12.47,12.47,0,0,0-1.5,2.8c-.1,0-.2.1-.3.2h0c-.3.3-.3.3-.3.5,0-.3-.3,0-.3.3a1.23,1.23,0,0,1-.5,1l-.5,1v.3a7.5,7.5,0,0,0-1,2c-.3.7-.5,1.3-.8,2l-1.5,4v1.3a4,4,0,0,1-.3,1.5V82a6.93,6.93,0,0,1-.3,2c-.1,1.1-.3,2.2-.5,3.3,0,.8-.3,1.5-.3,2V94c-.3.3-.3.3-.3.5v1a1.69,1.69,0,0,0-.3,1c0,.5,0,.8-.3,1V98c-.3,0-.3,0-.5.3l-.3.3v-.3a1.23,1.23,0,0,1-1,.5c-.5.3-.8.3-1,0v.5c0,.3,0,.5-.3.5h0v-.5c0-.3,0-.5-.3-.5,0-.3,0-.3-.3-.5v.8a1.14,1.14,0,0,0-.3-.8c-.3.5-.3.8,0,1s.3.3,0,.3h-.8a.47.47,0,0,1-.5-.5l-.5.5h-.8c-.3-.3-.3-.5-.5-.5s-.3-.3-.5-.5c-.1,0-.2.1-.3.2h0a1.14,1.14,0,0,1-.3.8c-.3-.5-.5-.8-.8-1.3a8.8,8.8,0,0,1-.5-1.5v-.5a28,28,0,0,1,.3-5,30.52,30.52,0,0,0,.5-5.2l.3-3c0-1.3.3-2.3.3-3a2.89,2.89,0,0,1,.3-1.8c.3-.5,0-1,.3-1.8.1-1,.3-2,.5-3l.8-3.7v-1c.3-2.5.8-5.2,1.3-8a76,76,0,0,0,1-8.5v-.5c.3-.3.3-.8.3-1.5v-.5c0-1,.3-1.8.8-2a3.18,3.18,0,0,0,1.3-1.5,4,4,0,0,0,1.5-.3,4,4,0,0,1,1.5-.3c.3,0,.3,0,.5.3,0,.3.3.3.3,0a5.36,5.36,0,0,0,1.5,1.5,3.35,3.35,0,0,1,1.5,1.8,3.58,3.58,0,0,1,0,2.5,8.68,8.68,0,0,0-.5,2.8c-.3,1.3-.3,2.5-.5,3.7s-.3,2.5-.5,3.7l1.5-1.5a17.5,17.5,0,0,1,2.8-3.3,24.84,24.84,0,0,0,3-2.5,2.11,2.11,0,0,0,1.3-.5,2.77,2.77,0,0,1,1.3-.3,1.38,1.38,0,0,1,1.3,1h0c0,.3.3.3.8.5.5,0,.5.5.3,1.3v-.3c0-.3,0-.3-.3,0v.8c-.3,0-.3,0-.8-.3a1.69,1.69,0,0,1-.3,1v-.3c-.3,0-.3,0-.3-.3H261c-.3,0-.3.3,0,.5a1.25,1.25,0,0,1-.8-.8c0-.3-.3,0-.5,0a2.18,2.18,0,0,0,.5.3c.1,0,.2.1.3.2h0V58c-.3.3-.8.5-1,1a3.92,3.92,0,0,1-1,.8v-.5l-.3,1V60l-.5.5-.5.5v-.3c1.4.4,1.4.4,1.2.6Zm-7,12.8a1.69,1.69,0,0,1-.3,1Z"/><path class="cls-1" d="M259.13,59.8l-.3.3c-.1,0-.2-.1-.3-.2h.6v-.1Zm.5,0c-.3.3-.5.3-.5,0l.3-.5c-.1,0-.2-.1-.3-.2h0v-.8c.3,0,.3,0,.3.3v-.8c0-.3.3-.3.5-.3h.8c.3,0,.3,0,.3-.3a1.14,1.14,0,0,1,.3-.8c.3.3.3.3.5.3a1.14,1.14,0,0,0,.8-.3l.8-.8a5.67,5.67,0,0,1,1.3-.8,19.67,19.67,0,0,0,2.8-1.3,11.42,11.42,0,0,1,3.3-.5,9.73,9.73,0,0,0,.5-2,27.42,27.42,0,0,0,.5-2.8c.2-1,.3-2,.5-3a8.52,8.52,0,0,0,.3-2.3,1.93,1.93,0,0,1,.3-1c0-.8.3-1.3.3-2s.3-1.5.3-2.3V36.3A15.54,15.54,0,0,0,274,34a8.52,8.52,0,0,0,.3-2.3,8.52,8.52,0,0,0,.3-2.3V27.1a13.23,13.23,0,0,1,.8-3.3,5,5,0,0,1,1.3-2.5,2.18,2.18,0,0,0,.3-.5c0-.3.3-.3.5-.3.3-.3.3-.3.5-.3s.3,0,.5-.3c.5,0,.8,0,.8-.3a1.14,1.14,0,0,1,.8.3v.3c.5,0,.8,0,1,.3a1,1,0,0,0,.8.5l.3.3a.55.55,0,0,1,.5.3,3.92,3.92,0,0,1,.8,1,11.07,11.07,0,0,1,1.3,4v2.8a10.21,10.21,0,0,1-.3,3,2.7,2.7,0,0,1-.3,1.5,1.05,1.05,0,0,0,0,1.3c-.3.3-.3.8-.5,1.5s-.3,1.5-.5,2.5-.3,1.8-.5,2.5c0,.8-.3,1.3-.3,1.8a11.21,11.21,0,0,1-.5,1.3l-.8,6.7a6.16,6.16,0,0,1,3.3,0c1.1.3,2.2.6,3.3.8.4.1.8.2,1.3.3s.8,0,.8.3l.5.5.5.5c.3.3.3.3.5.3h.5l1.3,1v.3c-.3.3-.5,0-.8-.3-.3.3-.3.3-.3.5v.5a1.4,1.4,0,0,1-1.5-.3,2.78,2.78,0,0,0-1.8-.3v.3l-.3.3h-.5c-.3,0-.3-.3-.5-.3-.5,0-1-.3-1.5-.3a1.59,1.59,0,0,0-1.3.3,1,1,0,0,0,1.3.3c0,.3.3.3.5.3h1.3c.3,0,.3.3.5.5a7.72,7.72,0,0,0-3.7,0,24.33,24.33,0,0,1-3.5.5v.3a.55.55,0,0,1-.3.5v.5a2.77,2.77,0,0,0-.3,1.3,1.94,1.94,0,0,1-.3,1.3l-.5,2v.8l-.8,2.5a2.77,2.77,0,0,0-.3,1.3v2.3a41.21,41.21,0,0,1-.8,4.5c-.3,1.5-.5,2.8-.8,4.2v2.5c0,.5-.3.8-.3,1.3v1.3a18.92,18.92,0,0,0-.5,2.3c0,.8-.3,1.5-.3,2.3a10.68,10.68,0,0,0-.3,2.5c0,.8-.3,1.8-.3,2.5a28.68,28.68,0,0,0-.5,4,41.93,41.93,0,0,0-.3,5,15,15,0,0,0,.5,3.7q.3,1.5,1.5,0a2,2,0,0,1,.8-.8c.3,0,.5-.3.5-.8.3,0,.8-.5,1.3-1.3s.8-1.5,1-1.8c.8-1.3,1.8-3.3,3.5-6,1.5-2.8,3.3-5.7,4.7-8.7,1.5-3.3,3.3-6,4.5-9a41.06,41.06,0,0,0,2.8-6,1.23,1.23,0,0,0,.5-1c.3-.5.5-.8.8-1.3a2.7,2.7,0,0,1-.3,1.5,2.35,2.35,0,0,0-.5,1.3,4.64,4.64,0,0,0,1-1,2.54,2.54,0,0,1,.8-1l.5-1.3a1.89,1.89,0,0,0,1.3-1,4,4,0,0,1,1-1.5,7.45,7.45,0,0,1-1.3,2.5v1.3c0,.3,0,.5-.3.5a10.17,10.17,0,0,1-1.3,2.8,19.65,19.65,0,0,0-1.3,2.5,7.5,7.5,0,0,0-1,2,25,25,0,0,1-1.8,3.7l-2.3,4.5c-.8,1.5-1.5,3.3-2.3,4.5-.8,1.5-1.3,2.8-1.8,3.7-.3.6-.5,1.2-.8,1.8-.5.5-.8.8-.8,1.3l-.5,1a4.58,4.58,0,0,1-.8,1.3,4.42,4.42,0,0,0-.5,1.5l.3-.3c0-.3,0-.3.3,0l-.8,1.8a3.48,3.48,0,0,1-1,2l-1.3,2a1.56,1.56,0,0,1-.8,1.3c-.3.3-.3.5-.5.5a.55.55,0,0,1-.3.5,5.38,5.38,0,0,1,1-2,3.92,3.92,0,0,0-.8,1c-.3.3-.5.5-.5.8a6.42,6.42,0,0,1-1,1.3c-.5.5-.8.8-.8,1-.3.3-.5.3-.3.3v.3c0,.3,0,.5-.3.5v.8a3.51,3.51,0,0,1-.8.5.47.47,0,0,0-.5.5,2.18,2.18,0,0,0-.3.5l-.5.5a.47.47,0,0,0-.5.5,1.14,1.14,0,0,1-.8.3h-1a10.5,10.5,0,0,0-2.3.8,3.51,3.51,0,0,0-.8-.5c-.5,0-.8-.3-1.3-.3h.1c0-.3,0-.3-.3,0h0c-.3,0-.5-.5-.8-1a.91.91,0,0,0-.8-1l-.1-.9a1.14,1.14,0,0,1-.3-.8v-1.2l-.5-6.5a93.17,93.17,0,0,1,.5-14c.5-4.5,1.3-9,1.8-13.5a9.26,9.26,0,0,1,.3-3.3,5.66,5.66,0,0,0,.3-1.8,12.09,12.09,0,0,1,.5-1.8c.2-1.1.4-2.2.5-3.3l1.8-10.2a.55.55,0,0,0-.5.3h-.5a.55.55,0,0,0-.5.3h-1.5l-2.5,1.3c-.3,0-.3,0-.3-.3,0-.1-.1-.2-.2-.3h0l-.8.5c-.3.3-.5.3-.8-.3.3-.3.3-.3.5-.3a.82.82,0,0,0,.8-.5h-.8c-.3,0-.3.3-.5.3a1.23,1.23,0,0,1-1-.5c-.3-.5-.5-.8-1-.8a2.18,2.18,0,0,1-.8.5C259.63,59.3,259.63,59.6,259.63,59.8Zm24.2,41.5c0,.3,0,.3-.3.5a.55.55,0,0,0-.5.3.47.47,0,0,1,.5-.5C283.83,101.5,283.63,101.5,283.83,101.3Z"/></g></g></svg>